<svg width="934" height="384" viewBox="0 0 934 384" fill="none" xmlns="http://www.w3.org/2000/svg">
<path d="M222.002 103.13L278.262 116.607L292.106 58.8116L331.078 68.1467L295.204 217.91L256.232 208.575L271.027 146.809L214.767 133.332L199.972 195.099L161 185.763L196.874 36L235.846 45.3352L222.002 103.13Z" fill="url(#paint0_linear_245_688)"/>
<path d="M433.972 7.97018L472.339 171.714L425.71 182.639L387.343 18.8958L433.972 7.97018Z" fill="url(#paint1_linear_245_688)"/>
<path d="M555.197 90.6863C558.32 80.458 563.12 71.5092 569.607 63.8435C576.083 56.1742 583.695 50.0802 592.42 45.5543C601.145 41.0284 610.745 38.3435 621.229 37.4763C631.708 36.6208 642.563 37.9012 653.812 41.3364C665.061 44.7716 674.626 49.7269 682.898 56.309C691.171 62.891 697.689 70.5109 702.467 79.1605C707.234 87.8065 710.166 97.1205 711.265 107.103C712.351 117.081 711.344 127.188 708.22 137.417C705.097 147.645 700.297 156.594 693.81 164.259C687.323 171.925 679.699 178.015 670.903 182.52C662.12 187.028 652.449 189.691 641.907 190.54C631.369 191.378 620.538 190.105 609.418 186.709C598.298 183.313 588.451 178.272 580.237 171.708C572.023 165.144 565.564 157.542 560.856 148.914C556.148 140.286 553.239 130.979 552.153 121C551.055 111.018 552.073 100.915 555.197 90.6863ZM592.76 102.157C591.087 107.634 590.577 113.005 591.243 118.263C591.907 123.532 593.487 128.403 595.993 132.891C598.499 137.38 601.81 141.295 605.931 144.613C610.053 147.932 614.742 150.4 620.002 152.007C625.263 153.613 630.516 154.194 635.803 153.736C641.075 153.286 646.04 151.91 650.688 149.594C655.333 147.289 659.401 144.143 662.894 140.143C666.384 136.155 668.961 131.415 670.634 125.938C672.306 120.461 672.805 115.087 672.15 109.833C671.484 104.576 669.871 99.6821 667.306 95.1758C664.742 90.6694 661.393 86.7552 657.275 83.425C653.141 80.1029 648.452 77.6346 643.203 76.0317C637.955 74.4289 632.687 73.8564 627.403 74.3027C622.119 74.7489 617.186 76.1469 612.611 78.4731C608.025 80.7957 603.99 83.9644 600.5 87.9524C597.006 91.952 594.432 96.6804 592.76 102.157Z" fill="url(#paint2_linear_245_688)"/>
<path d="M883.752 39.2017L828.992 58.6481L839.559 88.4052L891.262 70.0444L905.189 109.261L853.486 127.622L864.392 158.333L919.152 138.886L933.079 178.103L832.248 213.91L769 35.8069L869.831 -7.98801e-05L883.758 39.2168L883.752 39.2017Z" fill="url(#paint3_linear_245_688)"/>
<path d="M118.327 207.321C111.759 206.643 105.771 206.855 100.379 207.981C94.9869 209.107 90.2822 210.978 86.2393 213.612C81.1372 216.934 77.7539 220.863 76.1069 225.367C74.447 229.88 74.8885 234.088 77.4145 237.967C79.16 240.647 81.4043 242.342 84.1518 243.03C86.8993 243.718 89.9996 243.846 93.4525 243.413C96.9054 242.981 100.585 242.163 104.491 240.958C108.398 239.754 112.307 238.639 116.233 237.605C131.932 233.492 145.095 233.085 155.755 236.346C166.409 239.628 175.477 247.026 182.988 258.559C188.057 266.342 191.335 274.227 192.816 282.235C194.298 290.244 193.991 298.133 191.861 305.906C189.752 313.684 185.831 321.193 180.126 328.45C174.414 335.693 166.935 342.344 157.661 348.384C138.441 360.902 116.932 366.799 93.1096 366.093L89.3487 323.289C98.6718 324.667 107.045 324.756 114.484 323.526C121.92 322.316 128.473 319.865 134.117 316.189C140.563 311.991 144.411 307.393 145.654 302.381C146.884 297.378 146.291 292.993 143.849 289.243C142.363 286.962 140.679 285.252 138.774 284.107C136.882 282.953 134.519 282.29 131.731 282.106C128.931 281.929 125.621 282.213 121.818 282.984C118.015 283.754 113.474 284.803 108.22 286.114C102.056 287.835 95.8993 289.312 89.7237 290.563C83.5481 291.814 77.5039 292.081 71.5825 291.349C65.6611 290.618 59.926 288.591 54.3862 285.226C48.8463 281.86 43.6344 276.428 38.7418 268.916C33.8492 261.404 30.6667 253.806 29.1818 246.074C27.6923 238.364 27.7856 230.853 29.4571 223.562C31.1156 216.279 34.4239 209.298 39.3776 202.64C44.3183 195.991 50.8275 190.027 58.8875 184.777C66.418 179.873 74.9511 175.802 84.5044 172.534C94.0447 169.275 103.9 167.206 114.049 166.322L118.369 207.33L118.327 207.321Z" fill="url(#paint4_linear_245_688)"/>
<defs>
<linearGradient id="paint0_linear_245_688" x1="263.976" y1="52.0734" x2="228.102" y2="201.837" gradientUnits="userSpaceOnUse">
<stop stop-color="#F37987"/>
<stop offset="1" stop-color="#FFC9CF"/>
</linearGradient>
<linearGradient id="paint1_linear_245_688" x1="410.658" y1="13.433" x2="449.024" y2="177.177" gradientUnits="userSpaceOnUse">
<stop stop-color="#F37987"/>
<stop offset="1" stop-color="#FFC9CF"/>
</linearGradient>
<linearGradient id="paint2_linear_245_688" x1="653.905" y1="41.3651" x2="609.512" y2="186.738" gradientUnits="userSpaceOnUse">
<stop stop-color="#F37987"/>
<stop offset="1" stop-color="#FFC9CF"/>
</linearGradient>
<linearGradient id="paint3_linear_245_688" x1="819.415" y1="17.9034" x2="882.663" y2="196.006" gradientUnits="userSpaceOnUse">
<stop stop-color="#F37987"/>
<stop offset="1" stop-color="#FFC9CF"/>
</linearGradient>
<linearGradient id="paint4_linear_245_688" x1="56.1427" y1="186.565" x2="160.38" y2="346.614" gradientUnits="userSpaceOnUse">
<stop stop-color="#F37987"/>
<stop offset="1" stop-color="#FFC9CF"/>
</linearGradient>
</defs>
</svg>
