<svg width="1109" height="738" viewBox="0 0 1109 738" fill="none" xmlns="http://www.w3.org/2000/svg">
<g filter="url(#filter0_f_107_1202)">
<path d="M864.65 140.648H343.517C331.472 140.648 320.327 134.251 314.238 123.848L298.207 96.4436C295.872 92.4532 291.598 90 286.976 90H127.303C110.015 89.9922 96 104.021 96 121.325V647.674C96 647.852 96.1474 648 96.3258 648H895.674C895.853 648 896 647.852 896 647.674V172.02C896 154.692 881.969 140.64 864.65 140.64V140.648Z" fill="#FFCABA"/>
</g>
<path d="M176.219 181.221L116.741 323.272L78 307.051L137.478 165L176.219 181.221Z" fill="url(#paint0_linear_107_1202)"/>
<path d="M235.905 195.839L163 132.759L208.556 121.244L245.991 154.621L262.87 107.515L308.426 96L274.064 186.194L291.948 256.946L253.789 266.591L235.905 195.839Z" fill="url(#paint1_linear_107_1202)"/>
<path d="M417.669 218.876L365.752 206.825L351.756 229.254L313.003 220.258L398.785 92.3552L438.465 101.566L459.115 254.189L420.361 245.193L417.678 218.891L417.669 218.876ZM414.468 188.924L408.995 138.445L381.845 181.351L414.48 188.927L414.468 188.924Z" fill="url(#paint2_linear_107_1202)"/>
<path d="M530.974 330.502L501.581 184.468L535.792 171.537L590.144 234.786L588.888 151.467L623.11 138.531L697.657 267.51L663.266 280.51L621.888 205.692L620.409 296.71L606.655 301.909L546.934 234.024L565.392 317.506L531.001 330.505L530.974 330.502Z" fill="url(#paint3_linear_107_1202)"/>
<path d="M956.709 161.937L925.877 294.086L882.025 283.854L912.857 151.705L876.832 143.3L885.535 106L1001.42 133.038L992.717 170.353L956.706 161.951L956.709 161.937Z" fill="url(#paint4_linear_107_1202)"/>
<path d="M938 361.5C938 350.594 940.001 340.437 944.017 331.029C948.019 321.621 953.588 313.41 960.699 306.398C967.809 299.385 976.312 293.907 986.207 289.939C996.102 285.984 1006.99 284 1018.9 284C1030.81 284 1041.54 285.984 1051.49 289.939C1061.45 293.895 1070.02 299.385 1077.2 306.398C1084.37 313.41 1089.97 321.621 1093.98 331.029C1097.99 340.437 1100 350.594 1100 361.5C1100 372.406 1098 382.563 1093.98 391.971C1089.97 401.379 1084.39 409.59 1077.2 416.602C1070.03 423.615 1061.45 429.093 1051.49 433.061C1041.54 437.016 1030.67 439 1018.9 439C1007.13 439 996.102 437.016 986.207 433.061C976.312 429.105 967.809 423.615 960.699 416.602C953.588 409.59 948.019 401.379 944.017 391.971C940.001 382.563 938 372.406 938 361.5ZM977.767 361.5C977.767 367.34 978.861 372.73 981.061 377.659C983.261 382.6 986.232 386.88 989.986 390.511C993.74 394.142 998.104 396.975 1003.08 398.983C1008.05 400.992 1013.32 402.003 1018.89 402.003C1024.46 402.003 1029.72 401.005 1034.7 398.983C1039.67 396.975 1044.07 394.155 1047.89 390.511C1051.71 386.88 1054.71 382.6 1056.91 377.659C1059.11 372.73 1060.21 367.34 1060.21 361.5C1060.21 355.66 1059.1 350.27 1056.91 345.341C1054.71 340.412 1051.71 336.12 1047.89 332.489C1044.07 328.858 1039.67 326.038 1034.7 324.017C1029.72 322.008 1024.44 320.997 1018.89 320.997C1013.33 320.997 1008.06 322.008 1003.08 324.017C998.091 326.025 993.728 328.858 989.986 332.489C986.232 336.12 983.261 340.412 981.061 345.341C978.861 350.282 977.767 355.66 977.767 361.5Z" fill="url(#paint5_linear_107_1202)"/>
<g filter="url(#filter1_f_107_1202)">
<path d="M904.062 647.992H104L211.81 255.921C216.022 240.612 229.93 230 245.8 230H987.973C1005.11 230 1019 243.904 1019 261.052L904.062 648V647.992Z" fill="url(#paint6_linear_107_1202)"/>
</g>
<path d="M40.6218 531.48L8.86729 386.87L43.5116 372.892L99.6137 434.2L97.2692 351.204L131.925 337.221L209.407 463.396L174.58 477.447L131.532 404.197L131.18 494.957L117.251 500.577L55.628 434.821L75.4653 517.436L40.6264 531.492L40.6218 531.48Z" fill="url(#paint7_linear_107_1202)"/>
<path d="M698 186.5C698 175.594 700.014 165.437 704.054 156.029C708.081 146.621 713.685 138.41 720.839 131.398C727.993 124.385 736.549 118.907 746.505 114.939C756.461 110.984 767.418 109 779.4 109C791.382 109 802.176 110.984 812.195 114.939C822.214 118.895 830.831 124.385 838.061 131.398C845.278 138.41 850.906 146.621 854.946 156.029C858.974 165.437 861 175.594 861 186.5C861 197.406 858.986 207.563 854.946 216.971C850.906 226.379 845.29 234.59 838.061 241.602C830.844 248.615 822.214 254.093 812.195 258.061C802.176 262.016 791.245 264 779.4 264C767.555 264 756.461 262.016 746.505 258.061C736.549 254.105 727.993 248.615 720.839 241.602C713.685 234.59 708.081 226.379 704.054 216.971C700.014 207.563 698 197.406 698 186.5ZM738.012 186.5C738.012 192.34 739.113 197.73 741.327 202.659C743.54 207.6 746.53 211.88 750.307 215.511C754.084 219.142 758.475 221.975 763.478 223.983C768.481 225.992 773.784 227.003 779.387 227.003C784.991 227.003 790.282 226.005 795.297 223.983C800.3 221.975 804.728 219.155 808.568 215.511C812.408 211.88 815.435 207.6 817.648 202.659C819.862 197.73 820.963 192.34 820.963 186.5C820.963 180.66 819.85 175.27 817.648 170.341C815.435 165.412 812.408 161.12 808.568 157.489C804.728 153.858 800.3 151.038 795.297 149.017C790.282 147.008 784.978 145.997 779.387 145.997C773.797 145.997 768.493 147.008 763.478 149.017C758.462 151.025 754.072 153.858 750.307 157.489C746.53 161.12 743.54 165.412 741.327 170.341C739.113 175.282 738.012 180.66 738.012 186.5Z" fill="url(#paint8_linear_107_1202)"/>
<defs>
<filter id="filter0_f_107_1202" x="6" y="0" width="980" height="738" filterUnits="userSpaceOnUse" color-interpolation-filters="sRGB">
<feFlood flood-opacity="0" result="BackgroundImageFix"/>
<feBlend mode="normal" in="SourceGraphic" in2="BackgroundImageFix" result="shape"/>
<feGaussianBlur stdDeviation="45" result="effect1_foregroundBlur_107_1202"/>
</filter>
<filter id="filter1_f_107_1202" x="14" y="140" width="1095" height="598" filterUnits="userSpaceOnUse" color-interpolation-filters="sRGB">
<feFlood flood-opacity="0" result="BackgroundImageFix"/>
<feBlend mode="normal" in="SourceGraphic" in2="BackgroundImageFix" result="shape"/>
<feGaussianBlur stdDeviation="45" result="effect1_foregroundBlur_107_1202"/>
</filter>
<linearGradient id="paint0_linear_107_1202" x1="156.849" y1="173.111" x2="97.3705" y2="315.161" gradientUnits="userSpaceOnUse">
<stop stop-color="#4DAE5C"/>
<stop offset="1" stop-color="#FFEBB2"/>
</linearGradient>
<linearGradient id="paint1_linear_107_1202" x1="235.713" y1="114.38" x2="272.962" y2="261.745" gradientUnits="userSpaceOnUse">
<stop stop-color="#4DAE5C"/>
<stop offset="1" stop-color="#FFEBB2"/>
</linearGradient>
<linearGradient id="paint2_linear_107_1202" x1="418.619" y1="96.9594" x2="386.057" y2="237.23" gradientUnits="userSpaceOnUse">
<stop stop-color="#4DAE5C"/>
<stop offset="1" stop-color="#FFEBB2"/>
</linearGradient>
<linearGradient id="paint3_linear_107_1202" x1="562.34" y1="161.502" x2="614.318" y2="299.012" gradientUnits="userSpaceOnUse">
<stop stop-color="#4DAE5C"/>
<stop offset="1" stop-color="#FFEBB2"/>
</linearGradient>
<linearGradient id="paint4_linear_107_1202" x1="943.479" y1="119.519" x2="903.944" y2="288.968" gradientUnits="userSpaceOnUse">
<stop stop-color="#4DAE5C"/>
<stop offset="1" stop-color="#FFEBB2"/>
</linearGradient>
<linearGradient id="paint5_linear_107_1202" x1="1019" y1="284" x2="1019" y2="439" gradientUnits="userSpaceOnUse">
<stop stop-color="#4DAE5C"/>
<stop offset="1" stop-color="#FFEBB2"/>
</linearGradient>
<linearGradient id="paint6_linear_107_1202" x1="561.5" y1="230" x2="561.5" y2="648" gradientUnits="userSpaceOnUse">
<stop stop-color="white"/>
<stop offset="1" stop-color="#F5E2D8"/>
</linearGradient>
<linearGradient id="paint7_linear_107_1202" x1="70.3904" y1="362.048" x2="125.017" y2="497.444" gradientUnits="userSpaceOnUse">
<stop stop-color="#4DAE5C"/>
<stop offset="1" stop-color="#FFEBB2"/>
</linearGradient>
<linearGradient id="paint8_linear_107_1202" x1="779.5" y1="109" x2="779.5" y2="264" gradientUnits="userSpaceOnUse">
<stop stop-color="#4DAE5C"/>
<stop offset="1" stop-color="#FFEBB2"/>
</linearGradient>
</defs>
</svg>
