<svg width="93" height="87" viewBox="0 0 93 87" fill="none" xmlns="http://www.w3.org/2000/svg">
<path d="M85.7251 7.3265C76.417 -2.00369 61.3314 -2.00369 52.0299 7.3265C50.2874 9.07303 48.9643 11.5878 47.9621 14.5228C47.4315 16.0723 45.2698 16.0723 44.7393 14.5228C43.737 11.5944 42.4139 9.0796 40.6715 7.3265C31.3699 -1.99712 16.2843 -1.99712 6.97618 7.3265C-2.32539 16.6501 -2.32539 31.778 6.97618 41.1016C11.1422 45.2776 19.6578 47.0504 27.7934 47.7332C34.4748 48.2913 39.5972 53.9249 39.5972 60.6484V84.7913C39.5972 85.7303 40.357 86.4985 41.3003 86.4985H51.3945C52.3312 86.4985 53.0976 85.7368 53.0976 84.7913V60.6484C53.0976 53.9249 58.22 48.2913 64.9014 47.7332C73.037 47.0504 81.5591 45.2776 85.7186 41.1016C95.0201 31.7715 95.0201 16.6501 85.7186 7.3265H85.7251Z" fill="url(#paint0_linear_107_757)"/>
<defs>
<linearGradient id="paint0_linear_107_757" x1="0" y1="43.4137" x2="92.6948" y2="43.4137" gradientUnits="userSpaceOnUse">
<stop stop-color="#1CB4A8" stop-opacity="0"/>
<stop offset="1" stop-color="#27B9AE"/>
</linearGradient>
</defs>
</svg>
